<svg width="32" height="32" viewBox="0 0 32 32" fill="none" xmlns="http://www.w3.org/2000/svg">
<g clip-path="url(#clip0_1_2094)">
<path d="M18.6665 2.66675H5.33317C3.85317 2.66675 2.6665 3.86675 2.6665 5.33341V18.6667H5.33317V5.33341H18.6665V2.66675ZM23.9998 8.00008H10.6665C9.1865 8.00008 7.99984 9.20008 7.99984 10.6667V24.0001H10.6665V10.6667H23.9998V8.00008ZM26.6665 13.3334H15.9998C14.5198 13.3334 13.3332 14.5334 13.3332 16.0001V26.6667C13.3332 28.1334 14.5198 29.3334 15.9998 29.3334H26.6665C28.1332 29.3334 29.3332 28.1334 29.3332 26.6667V16.0001C29.3332 14.5334 28.1332 13.3334 26.6665 13.3334Z" fill="black"/>
</g>
<defs>
<clipPath id="clip0_1_2094">
<rect width="32" height="32" fill="white"/>
</clipPath>
</defs>
</svg>
